# xmcd CD database file
#
# Track frame offsets:
#	150
#	13711
#	26492
#	45773
#	62773
#	78098
#	95393
#	110282
#	125261
#	141819
#	155346
#	172570
#
# Disc length: 2538 seconds
#
# Revision: 1
# Processed by: cddbd v1.5.1PL0 Copyright (c) Steve Scherf et al.
# Submitted via: CDex 1.50beta10
#
DISCID=7c09e80c
DTITLE=Various Artist - Nite Sky 501
DYEAR=2005
DGENRE=Country
TTITLE0=Andrew Dean/Everybody Loves A DJ
TTITLE1=Tamie Haupricht/I'm In Love
TTITLE2=Tommy The UK Cowboy/Memories In That Old Storage Room
TTITLE3=Jim Russ/Alright Already
TTITLE4=Michael Abbott Band/Snakebit
TTITLE5=Andrew Dean/Lonely Soldier
TTITLE6=Kimberly Bibb-Marrs/After Supper
TTITLE7=Rory Hoffman/Weight Of The World
TTITLE8=Ron Thompson/Only God Can Say
TTITLE9=Potter Sisters/Stompin'
TTITLE10=Dave Gallagher/Let's Pray
TTITLE11=Timothy W. Lovell/Binding His Hands
EXTD=YEAR: 2005
EXTT0=
EXTT1=
EXTT2=
EXTT3=
EXTT4=
EXTT5=
EXTT6=
EXTT7=
EXTT8=
EXTT9=
EXTT10=
EXTT11=
PLAYORDER=
